{"title":"Knock Out (2010) SCAM rip - Xvid - [Team SRG]","uid":5889993,"size":2243702784,"categoryP":"video","categoryS":"movies","magnet":"?xt=urn:btih:681e3381d1c79fa481bbb23e990c0a2aff5a4bcb&amp;dn=Knock+Out+%282010%29+SCAM+rip+-+Xvid+-+%5BTeam+SRG%5D&amp;tr=udp%3A%2F%2Ftracker.openbittorrent.com%3A80&amp;tr=udp%3A%2F%2Fopen.demonii.com%3A1337&amp;tr=udp%3A%2F%2Ftracker.coppersurfer.tk%3A6969&amp;tr=udp%3A%2F%2Fexodus.desync.com%3A6969","seeders":0,"leechers":1,"uploader":"the.count","files":2,"time":1287209311,"description":"___________________________________________________________________________________\n\n\nDescription:\n-----------\n\nGeneral\nFormat : MPEG-PS\nFile size : 683 MiB\nDuration : 51mn 0s\nOverall bit rate : 1 872 Kbps\n\nVideo\nID : 224 (0xE0)\nFormat : MPEG Video\nFormat version : Version 2\nFormat profile : Main@Main\nFormat settings, BVOP : Yes\nFormat settings, Matrix : Default\nFormat settings, GOP : M=3, N=12\nDuration : 51mn 0s\nBit rate mode : Variable\nBit rate : 1 707 Kbps\nNominal bit rate : 2 519 Mbps\nWidth : 720 pixels\nHeight : 576 pixels\nDisplay aspect ratio : 4:3\nFrame rate : 25.000 fps\nStandard : PAL\nColor space : YUV\nChroma subsampling : 4:2:0\nBit depth : 8 bits\nScan type : Progressive\nBits/(Pixel*Frame) : 0.165\nStream size : 623 MiB (91%)\n\nAudio\nID : 192 (0xC0)\nFormat : MPEG Audio\nFormat version : Version 1\nFormat profile : Layer 2\nDuration : 51mn 0s\nBit rate mode : Constant\nBit rate : 128 Kbps\nChannel(s) : 2 channels\nSampling rate : 48.0 KHz\nStream size : 46.7 MiB (7%)\n\n\nPoster:\n------\n &lt;a href=&quot;\nhttp://media.movietalkies.com/posters/bollywood/movies/2010/knockout/knockout-2010-1b.jpg&quot; rel=&quot;nofollow&quot; target=&quot;_NEW&quot;&gt;\nhttp://media.movietalkies.com/posters/bollywood/movies/2010/knockout/knockout-2010-1b.jpg&lt;/a&gt;\n\n\nScreenshots:\n-----------\n &lt;a href=&quot;\nhttp://img218.imageshack.us/img218/7817/vlcsnap2010101516h35m42.png&quot; rel=&quot;nofollow&quot; target=&quot;_NEW&quot;&gt;\nhttp://img218.imageshack.us/img218/7817/vlcsnap2010101516h35m42.png&lt;/a&gt;\n &lt;a href=&quot;\nhttp://img242.imageshack.us/img242/8563/vlcsnap2010101516h35m48.png&quot; rel=&quot;nofollow&quot; target=&quot;_NEW&quot;&gt;\nhttp://img242.imageshack.us/img242/8563/vlcsnap2010101516h35m48.png&lt;/a&gt;\n &lt;a href=&quot;\nhttp://img816.imageshack.us/img816/9611/vlcsnap2010101517h19m58.png&quot; rel=&quot;nofollow&quot; target=&quot;_NEW&quot;&gt;\nhttp://img816.imageshack.us/img816/9611/vlcsnap2010101517h19m58.png&lt;/a&gt;\n\n___________________________________________________________________________________\n\n\nUL by =ThE.CounT=\n","torrent":{"xt":"urn:btih:681e3381d1c79fa481bbb23e990c0a2aff5a4bcb","amp;dn":"Knock+Out+%282010%29+SCAM+rip+-+Xvid+-+%5BTeam+SRG%5D","amp;tr":["udp%3A%2F%2Ftracker.openbittorrent.com%3A80","udp%3A%2F%2Fopen.demonii.com%3A1337","udp%3A%2F%2Ftracker.coppersurfer.tk%3A6969","udp%3A%2F%2Fexodus.desync.com%3A6969"],"infoHash":"681e3381d1c79fa481bbb23e990c0a2aff5a4bcb","infoHashBuffer":{"type":"Buffer","data":[104,30,51,129,209,199,159,164,129,187,178,62,153,12,10,42,255,90,75,203]},"announce":[],"urlList":[]}}